HIERARCHY
ROOT joint_Root
{
	OFFSET 0.0 0.0 0.0
	CHANNELS 6 Xposition Yposition Zposition Zrotation Xrotation Yrotation 
	JOINT Hips
	{
		OFFSET -0.726466 93.3139 -2.00062
		CHANNELS 6 Xposition Yposition Zposition Zrotation Xrotation Yrotation 
		JOINT Spine
		{
			OFFSET 15.7357 0.0 0.0
			CHANNELS 6 Xposition Yposition Zposition Zrotation Xrotation Yrotation 
			JOINT Chest
			{
				OFFSET 8.98455 -0.406207 0.0
				CHANNELS 6 Xposition Yposition Zposition Zrotation Xrotation Yrotation 
				JOINT Neck
				{
					OFFSET 16.3773 0.0 0.0
					CHANNELS 6 Xposition Yposition Zposition Zrotation Xrotation Yrotation 
					JOINT Head
					{
						OFFSET 6.45672 0.0 0.0
						CHANNELS 6 Xposition Yposition Zposition Zrotation Xrotation Yrotation 
						End Site
						{
							OFFSET 0.0 0.0 0.0
						}
					}
				}
				JOINT Shoulder_L
				{
					OFFSET 12.9942 -0.242716 4.98039
					CHANNELS 6 Xposition Yposition Zposition Zrotation Xrotation Yrotation 
					JOINT UpperArm_L
					{
						OFFSET 5.34809 0.0 0.0
						CHANNELS 6 Xposition Yposition Zposition Zrotation Xrotation Yrotation 
						JOINT LowerArm_L
						{
							OFFSET 24.3286 1.87007e-05 0.0
							CHANNELS 6 Xposition Yposition Zposition Zrotation Xrotation Yrotation 
							JOINT Hand_L
							{
								OFFSET 22.2916 0.0 0.0
								CHANNELS 6 Xposition Yposition Zposition Zrotation Xrotation Yrotation 
								End Site
								{
									OFFSET 0.0 0.0 0.0
								}
							}
						}
					}
				}
				JOINT Shoulder_R
				{
					OFFSET 12.9945 -0.242716 -4.98039
					CHANNELS 6 Xposition Yposition Zposition Zrotation Xrotation Yrotation 
					JOINT UpperArm_R
					{
						OFFSET -5.34813 0.0 0.0
						CHANNELS 6 Xposition Yposition Zposition Zrotation Xrotation Yrotation 
						JOINT LowerArm_R
						{
							OFFSET -24.3289 0.000322201 0.0
							CHANNELS 6 Xposition Yposition Zposition Zrotation Xrotation Yrotation 
							JOINT Hand_R
							{
								OFFSET -22.2915 -0.000108084 0.0
								CHANNELS 6 Xposition Yposition Zposition Zrotation Xrotation Yrotation 
								End Site
								{
									OFFSET 0.0 0.0 0.0
								}
							}
						}
					}
				}
			}
		}
		JOINT UpperLeg_L
		{
			OFFSET -2.19248 -6.46944 0.0
			CHANNELS 6 Xposition Yposition Zposition Zrotation Xrotation Yrotation 
			JOINT LowerLeg_L
			{
				OFFSET 39.0811 0.0 -1.23785e-05
				CHANNELS 6 Xposition Yposition Zposition Zrotation Xrotation Yrotation 
				JOINT Foot_L
				{
					OFFSET 40.9854 0.0 -1.26872e-05
					CHANNELS 6 Xposition Yposition Zposition Zrotation Xrotation Yrotation 
					JOINT Toes_L
					{
						OFFSET 11.7543 0.0 0.0
						CHANNELS 6 Xposition Yposition Zposition Zrotation Xrotation Yrotation 
						End Site
						{
							OFFSET 0.0 0.0 0.0
						}
					}
				}
			}
		}
		JOINT UpperLeg_R
		{
			OFFSET -2.19251 6.46944 0.0
			CHANNELS 6 Xposition Yposition Zposition Zrotation Xrotation Yrotation 
			JOINT LowerLeg_R
			{
				OFFSET -39.0811 -0.00228153 -0.0401928
				CHANNELS 6 Xposition Yposition Zposition Zrotation Xrotation Yrotation 
				JOINT Foot_R
				{
					OFFSET -40.9854 0.0 0.0
					CHANNELS 6 Xposition Yposition Zposition Zrotation Xrotation Yrotation 
					JOINT Toes_R
					{
						OFFSET -11.7543 0.0 0.0
						CHANNELS 6 Xposition Yposition Zposition Zrotation Xrotation Yrotation 
						End Site
						{
							OFFSET 0.0 0.0 0.0
						}
					}
				}
			}
		}
	}
}
MOTION
Frames:	5
Frame Time:	0.0333333
0.000000 0.000000 0.000000 0.000000 0.000000 -0.000000 -1.564540 92.326400 -2.779450 87.556000 0.679808 2.354340 15.735700 0.000005 -0.000001 79.798600 87.770200 -79.502200 8.984550 -0.406207 -0.000000 -3.374890 -0.818240 0.568751 16.377300 -0.000001 -0.000001 -5.077450 -1.310400 -0.320865 6.456720 -0.000001 -0.000000 -6.731010 -1.518060 6.414020 12.994200 -0.242716 4.980390 -84.384800 -12.355000 -65.321200 5.348090 -0.000007 -0.000001 -67.770000 -51.972000 -95.636800 24.328600 0.000019 0.000005 8.516240 4.166770 -64.115500 22.291600 -0.000001 0.000005 43.580500 5.657630 -15.792900 12.994500 -0.242716 -4.980390 91.758000 -4.231150 -67.412800 -5.348130 -0.000001 -0.000004 -48.560900 -53.557200 -96.115900 -24.328900 0.000322 -0.000009 2.796800 2.290380 -50.726700 -22.291500 -0.000108 -0.000004 47.631900 5.441260 -4.329980 -2.192480 -6.469440 -0.000000 -168.354000 -15.375700 -4.027690 39.081100 -0.000007 -0.000012 -0.146944 0.422934 19.159400 40.985400 -0.000006 -0.000013 -6.856450 3.206720 -60.837200 11.754300 -0.000000 0.000003 -0.000126 -0.001249 -16.625200 -2.192510 6.469440 -0.000001 175.756000 20.500100 177.706000 -39.081100 -0.002282 -0.040193 0.018871 -0.046225 18.589200 -40.985400 0.000008 0.000006 -0.896912 1.557370 -62.328200 -11.754300 -0.000006 -0.000006 -0.006348 -0.073967 -19.583700
0.000000 0.000000 0.000000 0.000000 0.000000 -0.000000 -1.565470 92.324200 -2.779080 87.556900 0.695074 2.290170 15.735700 0.000005 -0.000001 79.434500 87.755300 -79.151700 8.984550 -0.406207 -0.000000 -3.350770 -0.850189 0.540908 16.377300 -0.000001 -0.000001 -5.064520 -1.366470 -0.322302 6.456720 -0.000001 -0.000000 -6.695570 -1.560950 6.436080 12.994200 -0.242716 4.980390 -84.400600 -12.314600 -65.312600 5.348090 -0.000007 -0.000001 -68.020500 -51.969800 -95.842700 24.328600 0.000019 0.000005 8.402780 4.142640 -63.939300 22.291600 -0.000001 0.000005 43.682500 5.658190 -15.855000 12.994500 -0.242716 -4.980390 91.751400 -4.201230 -67.344900 -5.348130 -0.000001 -0.000004 -48.283500 -53.562000 -95.906000 -24.328900 0.000322 -0.000009 2.732970 2.253020 -50.539100 -22.291500 -0.000108 -0.000004 47.550500 5.443860 -4.421700 -2.192480 -6.469440 -0.000000 -168.379000 -15.392700 -4.114240 39.081100 -0.000007 -0.000012 -0.146024 0.419540 19.191000 40.985400 -0.000006 -0.000013 -6.844170 3.234410 -60.849800 11.754300 -0.000000 0.000003 -0.000111 -0.001122 -16.620500 -2.192510 6.469440 -0.000001 175.766000 20.530400 177.650000 -39.081100 -0.002282 -0.040193 0.017438 -0.041991 18.579000 -40.985400 0.000008 0.000006 -0.993077 1.570710 -62.319700 -11.754300 -0.000006 -0.000006 -0.006597 -0.076162 -19.673300
0.000000 0.000000 0.000000 0.000000 0.000000 -0.000000 -1.555680 92.325500 -2.767430 87.544000 0.693160 2.281740 15.735700 0.000005 -0.000001 79.228100 87.722300 -78.947200 8.984550 -0.406207 -0.000000 -3.288940 -0.878075 0.536736 16.377300 -0.000001 -0.000001 -5.076720 -1.425170 -0.280803 6.456720 -0.000001 -0.000000 -6.702150 -1.578900 6.370490 12.994200 -0.242716 4.980390 -84.396500 -12.307600 -65.284300 5.348090 -0.000007 -0.000001 -68.385900 -51.926500 -96.066100 24.328600 0.000019 0.000005 8.351390 4.124780 -63.896000 22.291600 -0.000001 0.000005 43.764600 5.657770 -15.808200 12.994500 -0.242716 -4.980390 91.749400 -4.189670 -67.312200 -5.348130 -0.000001 -0.000004 -48.137800 -53.586100 -95.794900 -24.328900 0.000322 -0.000009 2.834620 2.350370 -50.378500 -22.291500 -0.000108 -0.000004 47.196000 5.445610 -4.482870 -2.192480 -6.469440 -0.000000 -168.378000 -15.390100 -4.130880 39.081100 -0.000007 -0.000012 -0.146537 0.420623 19.207600 40.985400 -0.000006 -0.000013 -6.836740 3.220140 -60.861600 11.754300 -0.000000 0.000003 -0.000138 -0.001352 -16.629100 -2.192510 6.469440 -0.000001 175.777000 20.577900 177.656000 -39.081100 -0.002282 -0.040193 0.019142 -0.047099 18.564700 -40.985400 0.000008 0.000006 -0.933285 1.599140 -62.320100 -11.754300 -0.000006 -0.000006 -0.006641 -0.076548 -19.689000
0.000000 0.000000 0.000000 0.000000 0.000000 -0.000000 -1.558490 92.330800 -2.748870 87.547800 0.692747 2.256120 15.735700 0.000005 -0.000001 79.056500 87.695300 -78.784600 8.984550 -0.406207 -0.000000 -3.238510 -0.900727 0.518347 16.377300 -0.000001 -0.000001 -5.091900 -1.423490 -0.305600 6.456720 -0.000001 -0.000000 -6.735970 -1.603080 6.406360 12.994200 -0.242716 4.980390 -84.383300 -12.313600 -65.243400 5.348090 -0.000007 -0.000001 -68.715500 -51.847800 -96.279900 24.328600 0.000019 0.000005 8.276340 4.091840 -63.870000 22.291600 -0.000001 0.000005 43.893800 5.657870 -15.819400 12.994500 -0.242716 -4.980390 91.748300 -4.185610 -67.305300 -5.348130 -0.000001 -0.000004 -47.937800 -53.603200 -95.580900 -24.328900 0.000322 -0.000009 2.801410 2.329080 -50.302200 -22.291500 -0.000108 -0.000004 47.234600 5.443430 -4.406380 -2.192480 -6.469440 -0.000000 -168.365000 -15.361800 -4.085490 39.081100 -0.000007 -0.000012 -0.148301 0.428047 19.109300 40.985400 -0.000006 -0.000013 -6.864870 3.208930 -60.833500 11.754300 -0.000000 0.000003 -0.000135 -0.001329 -16.628200 -2.192510 6.469440 -0.000001 175.778000 20.627200 177.661000 -39.081100 -0.002282 -0.040193 0.019799 -0.049155 18.529400 -40.985400 0.000008 0.000006 -0.859876 1.651790 -62.318800 -11.754300 -0.000006 -0.000006 -0.006235 -0.072952 -19.542300
0.000000 0.000000 0.000000 0.000000 0.000000 -0.000000 -1.562810 92.332300 -2.729700 87.518900 0.654153 2.249960 15.735700 0.000005 -0.000001 79.416800 87.668000 -79.142300 8.984550 -0.406207 -0.000000 -3.179440 -0.882417 0.524578 16.377300 -0.000001 -0.000001 -5.055300 -1.392200 -0.331843 6.456720 -0.000001 -0.000000 -6.781360 -1.600790 6.393720 12.994200 -0.242716 4.980390 -84.363300 -12.348900 -65.226800 5.348090 -0.000007 -0.000001 -68.931300 -51.805500 -96.364600 24.328600 0.000019 0.000005 8.242910 4.069570 -63.900500 22.291600 -0.000001 0.000005 43.891900 5.657160 -15.743000 12.994500 -0.242716 -4.980390 91.747300 -4.181380 -67.297000 -5.348130 -0.000001 -0.000004 -47.839000 -53.624400 -95.521500 -24.328900 0.000322 -0.000009 2.808710 2.349660 -50.127900 -22.291500 -0.000108 -0.000004 47.329400 5.444370 -4.439470 -2.192480 -6.469440 -0.000000 -168.342000 -15.434700 -4.085420 39.081100 -0.000007 -0.000012 -0.145531 0.419341 19.139300 40.985400 -0.000006 -0.000013 -6.852740 3.223730 -60.858300 11.754300 -0.000000 0.000003 -0.000101 -0.001037 -16.617300 -2.192510 6.469440 -0.000001 175.805000 20.662900 177.689000 -39.081100 -0.002282 -0.040193 0.020132 -0.050302 18.476400 -40.985400 0.000008 0.000006 -0.889262 1.716950 -62.297100 -11.754300 -0.000006 -0.000006 -0.006489 -0.075217 -19.634700
